<?xml version="1.0" encoding="iso-8859-1"?>
<!-- Generator: Adobe Illustrator 16.0.0, SVG Export Plug-In . SVG Version: 6.00 Build 0)  -->
<!DOCTYPE svg PUBLIC "-//W3C//DTD SVG 1.1//EN" "http://www.w3.org/Graphics/SVG/1.1/DTD/svg11.dtd">
<svg xmlns="http://www.w3.org/2000/svg" xmlns:xlink="http://www.w3.org/1999/xlink" version="1.1" id="Capa_1" x="0px" y="0px" viewBox="0 0 124 124" xml:space="preserve">
<defs>
    <linearGradient id="grad2" gradientUnits="userSpaceOnUse" x1="0%" y1="0%" x2="100%" y2="0%">
        <stop offset="0" stop-color="#ffff00"/>
        <stop offset="1" stop-color="#f2327e"/>
    </linearGradient>
</defs>
<g fill="url(#grad2)">
	<circle cx="20.3" cy="103.749" r="20"/>
	<path d="M67,113.95c0,5.5,4.5,10,10,10s10-4.5,10-10c0-42.4-34.5-77-77-77c-5.5,0-10,4.5-10,10s4.5,10,10,10   C41.5,56.95,67,82.55,67,113.95z"/>
	<path d="M114,123.95c5.5,0,10-4.5,10-10c0-62.8-51.1-113.9-113.9-113.9c-5.5,0-10,4.5-10,10s4.5,10,10,10   c51.8,0,93.9,42.1,93.9,93.9C104,119.45,108.4,123.95,114,123.95z"/>
</g>
</svg>
